<?xml version="1.0" standalone="no"?>
<!DOCTYPE svg PUBLIC "-//W3C//DTD SVG 20010904//EN"
 "http://www.w3.org/TR/2001/REC-SVG-20010904/DTD/svg10.dtd">
<svg version="1.0" xmlns="http://www.w3.org/2000/svg"
 width="300.000000pt" height="273.000000pt" viewBox="0 0 300.000000 273.000000"
 preserveAspectRatio="xMidYMid meet">
<metadata>
Created by potrace 1.16, written by Peter Selinger 2001-2019
</metadata>
<g transform="translate(0.000000,273.000000) scale(0.100000,-0.100000)"
fill="#000000" stroke="none">
<path d="M382 2567 c-23 -23 -42 -47 -42 -53 0 -6 18 -36 40 -67 22 -30 40
-63 40 -72 0 -9 -12 -28 -26 -42 -17 -17 -22 -29 -16 -35 14 -14 62 35 62 63
0 12 -16 51 -35 86 -24 43 -30 63 -21 63 8 0 17 11 20 25 3 13 15 29 26 35 22
12 27 40 7 40 -7 0 -32 -19 -55 -43z"/>
<path d="M451 2514 c-15 -19 -19 -34 -14 -57 13 -72 61 -104 108 -73 36 24 41
59 15 101 -37 60 -76 71 -109 29z m83 -35 c31 -37 32 -41 7 -63 -26 -24 -59
-12 -67 22 -3 15 -8 33 -10 40 -13 42 36 42 70 1z"/>
<path d="M215 2454 c-31 -31 -4 -130 46 -167 21 -15 31 -17 47 -8 23 12 34 35
25 57 -4 12 -8 11 -17 -7 -15 -31 -31 -34 -54 -9 -28 31 -36 90 -14 112 21 21
31 15 57 -36 26 -51 33 -23 8 31 -15 31 -24 39 -49 41 -20 2 -38 -3 -49 -14z"/>
<path d="M1322 2459 c-84 -4 -163 -10 -175 -13 -25 -6 -57 -54 -57 -85 0 -16
-6 -21 -25 -21 -18 0 -31 -10 -44 -31 -25 -41 -45 -148 -36 -197 4 -28 2 -49
-9 -71 -9 -16 -16 -43 -16 -59 0 -45 -29 -118 -58 -148 -15 -15 -54 -39 -87
-54 -82 -37 -125 -87 -125 -144 0 -66 23 -81 119 -80 76 1 121 14 121 36 0 6
-9 8 -22 4 -13 -4 -53 -10 -91 -13 -56 -5 -71 -3 -87 12 -24 21 -25 46 -6 83
17 33 53 60 127 96 31 15 66 37 77 49 26 27 49 91 58 157 7 54 20 65 30 25 3
-14 20 -36 36 -50 l30 -25 -30 -73 c-16 -39 -40 -99 -52 -132 -12 -33 -37 -92
-55 -130 -18 -39 -38 -91 -45 -115 -17 -61 -46 -116 -90 -170 -40 -47 -81
-140 -101 -225 -11 -47 -9 -55 20 -124 19 -46 28 -78 22 -84 -15 -15 -51 2
-51 24 0 11 -11 24 -26 31 -24 11 -29 10 -42 -10 -23 -35 -44 -26 -75 29 -38
67 -47 55 -12 -16 l27 -57 48 7 c41 6 52 3 69 -14 12 -12 28 -21 36 -21 32 0
6 -36 -67 -94 -56 -44 -91 -114 -107 -209 -14 -81 -8 -105 25 -113 55 -14 94
54 94 162 0 19 5 45 11 57 11 20 74 95 131 155 12 12 16 22 10 22 -13 0 -17
82 -5 93 3 4 13 -2 21 -14 9 -14 23 -19 42 -17 15 1 34 -2 41 -8 20 -16 89 -5
89 14 0 13 3 12 20 -3 16 -14 23 -16 32 -7 7 7 22 12 35 12 23 0 31 14 13 25
-5 3 -6 13 -3 21 4 11 9 12 16 5 13 -13 47 -15 47 -2 0 5 -8 12 -17 15 -31 12
0 27 35 16 30 -8 34 -7 42 16 6 14 10 27 10 29 0 2 10 15 23 28 12 13 32 35
44 50 13 15 29 27 37 27 25 0 64 -58 71 -105 7 -46 26 -72 45 -60 7 4 5 11 -5
21 -8 9 -15 29 -15 45 0 17 -6 42 -14 57 -20 39 -72 86 -80 73 -9 -14 -46 -15
-46 -1 0 12 31 29 50 28 32 -2 50 2 50 12 0 6 -7 10 -16 10 -9 0 -14 7 -12 18
3 12 12 16 32 15 31 -2 66 12 66 27 0 5 -7 7 -16 3 -12 -4 -15 -2 -12 8 3 8
14 13 25 11 20 -3 46 19 41 34 -1 5 10 28 25 51 22 35 26 50 21 82 -5 31 -2
43 14 59 11 11 21 25 23 31 3 8 24 1 61 -19 39 -21 71 -31 106 -31 l51 -2 45
-66 c25 -36 48 -78 52 -93 3 -16 10 -28 14 -28 19 0 18 36 -1 76 -26 52 -16
74 35 74 35 0 71 -23 150 -97 28 -26 63 -55 79 -62 15 -8 26 -19 24 -25 -5
-14 21 -66 33 -66 5 0 7 6 4 14 -3 8 -1 17 5 21 6 3 11 10 11 15 0 14 -69 80
-84 80 -8 0 -19 6 -25 14 -9 11 -7 15 9 19 22 6 22 21 -1 142 -5 28 -10 122
-11 210 -2 124 1 171 14 211 17 55 73 170 86 178 4 2 0 -25 -9 -62 -21 -81
-23 -103 -7 -137 18 -39 32 -24 39 41 6 65 3 84 -7 36 -4 -18 -10 -30 -14 -27
-10 6 -3 45 22 128 17 56 31 78 75 121 55 56 61 66 41 66 -26 0 -92 -57 -133
-114 -127 -181 -150 -312 -110 -631 8 -66 15 -126 15 -134 0 -24 -62 -4 -100
33 -64 61 -122 74 -162 34 -20 -20 -22 -20 -35 -3 -19 27 -17 31 26 43 58 18
85 45 106 105 16 48 17 61 6 96 -6 23 -9 46 -6 51 3 5 -20 27 -52 49 -146 99
-194 195 -233 461 -5 36 -19 84 -31 106 -19 35 -33 46 -86 68 -35 14 -76 25
-91 24 -15 0 -96 -4 -180 -9z m251 -39 c46 -17 47 -27 2 -36 -35 -6 -46 -19
-22 -27 6 -2 24 0 40 6 45 15 77 -12 77 -68 0 -24 5 -56 11 -72 6 -15 15 -55
20 -87 6 -33 24 -94 41 -137 33 -84 92 -154 172 -205 57 -36 76 -91 57 -163
-15 -59 -47 -87 -118 -101 -94 -20 -186 4 -240 62 -25 26 -95 171 -122 251
l-18 52 -54 7 c-30 3 -72 13 -94 20 l-40 15 40 13 c54 17 70 34 25 26 -93 -16
-231 -25 -253 -17 -75 29 -110 207 -60 309 17 35 20 37 63 34 25 -2 61 -8 80
-15 19 -6 96 -11 172 -12 169 0 174 -3 157 -89 -11 -52 -10 -65 11 -132 13
-41 27 -74 32 -74 12 0 10 22 -7 87 -13 49 -14 69 -4 126 12 67 12 69 -12 93
-26 26 -22 25 -249 22 -21 0 -106 16 -147 28 -7 2 -13 9 -13 17 0 9 15 13 52
12 35 0 53 4 56 14 3 10 -3 13 -27 9 -38 -6 -47 4 -23 25 14 13 47 17 162 19
185 4 188 4 233 -12z m-292 -511 c33 -12 59 -25 59 -28 0 -4 -16 -15 -35 -24
-39 -18 -44 -33 -18 -52 12 -9 17 -24 15 -48 -5 -48 21 -63 68 -39 46 23 60
65 31 96 -28 30 -18 56 20 56 23 0 30 -5 35 -27 4 -16 20 -54 35 -85 29 -58
38 -118 18 -118 -6 0 -8 -9 -4 -20 4 -11 2 -20 -4 -20 -6 0 -8 -7 -5 -15 4 -9
0 -15 -10 -15 -9 0 -16 -5 -16 -10 0 -6 -6 -10 -14 -8 -8 2 -22 -6 -33 -18
-10 -11 -31 -24 -46 -28 -17 -4 -27 -12 -24 -19 3 -8 -8 -13 -35 -13 -38 -1
-83 -29 -73 -45 3 -4 -11 -13 -31 -19 -28 -9 -35 -16 -31 -31 3 -10 1 -19 -3
-19 -5 0 -17 -16 -26 -35 -9 -19 -21 -35 -28 -35 -6 0 -24 -26 -40 -58 -31
-63 -71 -92 -102 -74 -11 6 -26 5 -43 -4 -14 -7 -34 -15 -43 -18 -20 -6 -22
-14 -9 -35 6 -10 16 -11 37 -4 20 7 36 5 56 -5 l28 -14 -22 -31 c-24 -34 -50
-58 -57 -51 -2 2 4 13 14 24 16 18 16 20 2 20 -9 0 -26 -13 -38 -29 -31 -42
-75 -59 -96 -38 -15 15 -13 19 17 47 18 17 30 33 26 37 -3 4 -16 -3 -29 -15
-13 -12 -35 -22 -50 -22 -15 0 -27 -4 -27 -10 0 -5 7 -10 15 -10 9 0 15 -9 15
-21 0 -20 -2 -20 -22 -7 -23 15 -38 68 -20 68 5 0 12 10 15 23 2 12 8 30 12
40 6 13 4 16 -9 11 -22 -9 -20 3 14 87 17 41 46 90 64 109 38 40 65 90 91 170
21 64 70 166 85 175 5 3 10 15 10 27 0 11 14 33 30 48 26 24 29 32 20 54 -11
29 -8 31 21 16 15 -8 19 -7 19 4 0 9 -9 20 -19 26 -18 9 -19 12 -4 42 9 18 20
39 26 46 15 19 104 14 168 -9z m93 -105 c23 -9 20 -23 -3 -17 -23 6 -38 -14
-22 -30 15 -15 14 -27 -3 -27 -20 0 -25 20 -13 53 9 28 15 31 41 21z m206
-224 c0 -5 -4 -10 -10 -10 -5 0 -10 5 -10 10 0 6 5 10 10 10 6 0 10 -4 10 -10z
m-60 -144 c0 -25 -16 -46 -17 -23 0 7 -4 20 -8 30 -5 12 -2 17 9 17 10 0 16
-9 16 -24z m-180 -32 c0 -8 -4 -12 -10 -9 -5 3 -10 10 -10 16 0 5 5 9 10 9 6
0 10 -7 10 -16z m140 -13 c0 -10 -3 -20 -6 -24 -9 -8 -64 21 -64 34 0 6 7 3
16 -5 17 -18 34 -13 34 10 0 8 5 12 10 9 6 -3 10 -14 10 -24z m-162 -41 c9
-24 8 -30 -2 -30 -8 0 -15 14 -18 34 -5 41 6 39 20 -4z m-48 0 c0 -5 -2 -10
-4 -10 -3 0 -8 5 -11 10 -3 6 -1 10 4 10 6 0 11 -4 11 -10z m120 -32 c0 -4 -5
-10 -10 -13 -15 -9 -40 14 -40 37 0 18 1 18 25 1 13 -10 25 -21 25 -25z m50
22 c0 -11 -4 -20 -10 -20 -5 0 -10 9 -10 20 0 11 5 20 10 20 6 0 10 -9 10 -20z
m-188 -120 c20 0 21 -1 12 -24 -9 -23 -33 -20 -43 7 -4 12 -11 45 -14 72 l-6
50 17 -52 c12 -38 22 -53 34 -53z m44 63 c-7 -7 -26 7 -26 19 0 6 6 6 15 -2 9
-7 13 -15 11 -17z m118 8 c3 -5 -1 -11 -9 -14 -9 -4 -12 -1 -8 9 6 16 10 17
17 5z m-64 -49 c0 -7 -4 -10 -10 -7 -5 3 -10 16 -10 28 0 18 2 19 10 7 5 -8
10 -21 10 -28z m-160 -14 c0 -5 -9 -3 -20 4 -11 7 -20 16 -20 20 0 5 9 3 20
-4 11 -7 20 -16 20 -20z m115 4 c0 -18 -20 -15 -23 4 -3 10 1 15 10 12 7 -3
13 -10 13 -16z m-105 -61 c0 -6 -4 -12 -8 -15 -5 -3 -9 1 -9 9 0 8 4 15 9 15
4 0 8 -4 8 -9z m83 -7 c9 -9 -4 -35 -14 -28 -5 3 -9 12 -9 20 0 14 12 19 23 8z
m-33 -81 c0 -7 -6 -10 -14 -7 -7 3 -13 17 -13 31 0 25 0 26 13 8 8 -10 14 -25
14 -32z m-93 -15 c-3 -8 -6 -5 -6 6 -1 11 2 17 5 13 3 -3 4 -12 1 -19z m-37
-18 c0 -5 -4 -10 -10 -10 -5 0 -10 5 -10 10 0 6 5 10 10 10 6 0 10 -4 10 -10z
m106 -21 c10 -17 -13 -36 -27 -22 -12 12 -4 33 11 33 5 0 12 -5 16 -11z m-146
-44 c-11 -13 -15 -13 -21 -3 -5 8 -2 15 9 19 23 9 27 3 12 -16z m-300 -156
c-8 -28 -28 -59 -60 -90 -57 -58 -66 -79 -77 -184 -7 -73 -10 -81 -36 -95 -24
-13 -29 -13 -38 0 -14 21 -3 108 22 175 16 43 35 67 89 116 67 59 96 109 102
173 1 12 3 4 5 -16 2 -20 -1 -56 -7 -79z"/>
<path d="M1290 2365 c-12 -15 -8 -16 41 -13 63 4 72 22 13 26 -28 2 -45 -2
-54 -13z"/>
<path d="M1453 2373 c-25 -5 -32 -23 -9 -23 29 0 76 13 76 21 0 9 -27 10 -67
2z"/>
<path d="M1467 2213 c-13 -47 -17 -114 -8 -153 17 -78 26 -60 26 56 1 105 -6
141 -18 97z"/>
<path d="M1208 2198 c-2 -13 -11 -24 -23 -26 -31 -6 -40 -19 -25 -37 10 -12
10 -21 1 -41 -20 -46 -5 -60 30 -28 16 15 20 15 41 0 31 -22 40 -20 38 7 -4
38 -1 45 20 52 26 8 18 21 -19 28 -23 5 -30 12 -33 33 -4 34 -25 43 -30 12z
m22 -58 c23 -12 16 -39 -9 -37 -23 1 -46 47 -24 47 8 0 23 -5 33 -10z"/>
<path d="M1510 1940 c0 -5 5 -10 11 -10 5 0 7 5 4 10 -3 6 -8 10 -11 10 -2 0
-4 -4 -4 -10z"/>
<path d="M512 2314 c-46 -49 -49 -56 -28 -74 14 -11 46 -72 59 -112 7 -21 -15
-40 -39 -32 -18 5 -18 5 0 -10 28 -23 45 -20 56 10 10 26 -1 58 -45 133 -13
23 -11 28 21 72 45 62 30 70 -24 13z"/>
<path d="M598 2323 c-40 -48 -8 -143 44 -130 31 8 39 26 28 64 -6 21 -8 23 -9
8 -1 -22 -19 -45 -33 -45 -16 0 -37 64 -26 78 13 15 40 16 56 0 9 -9 12 -9 12
3 0 37 -47 51 -72 22z"/>
<path d="M2380 2213 c-37 -26 -69 -64 -86 -102 -17 -38 -12 -54 7 -20 22 43
101 119 123 119 17 0 18 2 6 10 -20 13 -22 13 -50 -7z"/>
<path d="M400 2205 c0 -2 11 -21 25 -42 34 -49 30 -87 -7 -91 -22 -3 -32 3
-48 30 -11 18 -22 38 -24 43 -2 6 -7 7 -11 2 -5 -4 -1 -23 8 -42 l17 -35 -30
-15 c-60 -31 -67 -19 -42 70 11 38 5 55 -19 55 -39 0 -112 -51 -91 -64 4 -2
21 4 38 15 39 25 44 24 44 -12 0 -26 -3 -29 -21 -24 -19 6 -21 4 -15 -16 4
-13 15 -55 25 -94 10 -38 24 -71 30 -73 13 -4 14 13 2 56 -8 27 -7 34 7 39 9
3 33 13 52 21 19 9 50 14 68 13 35 -3 72 21 72 45 0 25 -54 124 -67 124 -7 0
-13 -2 -13 -5z"/>
<path d="M2430 2080 c-58 -52 -77 -62 -65 -32 4 9 9 26 12 37 4 18 3 18 -16
-4 -23 -25 -26 -47 -11 -71 8 -13 13 -13 31 -2 11 7 22 12 22 10 22 -45 36
-63 52 -68 11 -3 20 -12 20 -20 0 -16 29 -17 208 -9 98 4 80 24 -21 24 -51 -1
-81 3 -81 10 4 38 -14 44 -82 24 -30 -9 -42 -9 -54 1 -25 20 -17 48 25 94 22
24 40 46 40 50 0 17 -30 0 -80 -44z"/>
<path d="M2602 1839 c-32 -12 -17 -32 19 -25 32 6 139 -12 139 -24 0 -7 -24
-14 -98 -27 -51 -8 -46 -20 18 -39 54 -16 57 -18 37 -29 -75 -39 -108 -67
-105 -88 5 -35 44 -23 107 31 31 27 64 51 74 55 31 12 13 31 -39 43 l-49 10
48 12 c35 9 47 17 47 31 0 22 -32 37 -109 51 -62 12 -59 12 -89 -1z m90 -199
c-29 -27 -62 -40 -62 -25 0 14 55 55 74 55 19 -1 18 -4 -12 -30z"/>
<path d="M2784 1560 c-6 -6 -34 -18 -63 -29 -28 -10 -51 -22 -49 -27 2 -5 5
-8 8 -8 57 16 68 15 74 -11 5 -19 19 -31 52 -45 53 -23 54 -23 54 -9 0 5 -15
16 -33 24 -57 24 -64 40 -33 80 18 23 22 35 14 35 -8 0 -19 -5 -24 -10z"/>
<path d="M470 1495 c0 -8 4 -15 9 -15 12 0 23 -29 15 -41 -3 -5 -13 -5 -24 1
-15 8 -24 5 -44 -16 -33 -36 -73 -194 -40 -162 3 3 12 32 21 64 20 78 29 94
56 94 51 0 60 -49 27 -146 -11 -32 -18 -64 -16 -71 3 -6 -11 -21 -30 -32 -19
-11 -34 -27 -34 -34 0 -8 -14 -33 -31 -57 -17 -23 -33 -57 -36 -76 -5 -33 -4
-34 26 -34 71 0 125 110 65 131 -21 8 5 49 42 66 36 17 36 17 55 -6 11 -14 17
-31 14 -40 -4 -9 -9 -29 -12 -46 -8 -41 11 -21 27 28 10 32 9 42 -4 62 -8 13
-25 26 -36 30 -24 8 -25 19 -4 98 16 62 13 142 -7 194 -9 25 -39 32 -39 8z
m-30 -435 c0 -24 -42 -70 -65 -70 -24 0 -18 35 11 64 32 31 54 34 54 6z"/>
<path d="M131 1393 c1 -32 -2 -81 -6 -110 -10 -66 4 -102 58 -148 65 -56 75
-40 13 20 -52 52 -56 58 -56 103 0 50 21 92 46 92 8 0 28 -22 45 -50 17 -27
35 -50 40 -50 14 0 -37 96 -59 112 -11 7 -23 24 -27 38 -10 33 -24 50 -42 50
-11 0 -14 -13 -12 -57z m39 -15 c0 -5 -4 -8 -10 -8 -5 0 -10 10 -10 23 0 18 2
19 10 7 5 -8 10 -18 10 -22z"/>
<path d="M2686 1411 c-3 -4 4 -17 15 -27 12 -11 35 -37 52 -58 l31 -39 -42 7
c-48 7 -53 -3 -21 -37 31 -33 79 -104 79 -117 0 -8 -12 -10 -40 -5 -26 4 -40
3 -40 -4 0 -6 25 -43 55 -82 60 -77 63 -88 39 -124 -14 -21 -14 -28 0 -70 19
-54 20 -76 5 -108 -7 -16 -8 -38 -1 -68 l10 -44 1 52 c1 28 6 55 11 58 15 9
12 80 -4 120 -12 28 -12 36 0 52 28 37 17 76 -43 149 -18 23 -33 44 -33 48 0
3 14 6 30 6 47 0 46 23 -4 95 l-45 65 31 -3 c48 -3 45 20 -7 76 -25 26 -45 52
-45 57 0 12 -27 13 -34 1z"/>
<path d="M1839 1228 c-37 -74 -109 -151 -245 -264 -55 -46 -106 -95 -112 -109
-13 -29 -32 -25 -32 6 0 10 -4 19 -10 19 -14 0 -12 -16 6 -52 14 -28 14 -36 1
-87 -10 -35 -14 -74 -10 -104 7 -63 23 -41 22 29 -1 29 8 80 21 118 19 59 30
73 92 129 161 141 184 162 220 205 33 37 98 149 98 167 0 3 -4 5 -10 5 -5 0
-24 -28 -41 -62z"/>
<path d="M355 1239 c-4 -6 -17 -14 -29 -19 -20 -8 -20 -9 5 -9 19 -1 28 5 32
19 6 22 2 26 -8 9z"/>
<path d="M2290 1231 c0 -5 25 -15 55 -22 40 -9 54 -16 53 -28 -2 -11 9 -17 39
-22 56 -10 110 -38 93 -49 -9 -6 -3 -15 23 -31 37 -24 50 -43 22 -33 -24 10
-17 -12 10 -30 14 -9 25 -23 25 -32 0 -8 13 -32 30 -52 20 -25 28 -44 24 -58
-5 -21 22 -61 34 -49 3 3 0 11 -6 17 -7 7 -12 25 -12 41 0 25 -12 56 -42 107
-4 8 -15 31 -24 50 -13 29 -64 84 -134 145 -17 15 -142 55 -171 55 -10 0 -19
-4 -19 -9z"/>
<path d="M334 1189 c-31 -9 -67 -39 -46 -39 8 0 54 21 81 38 13 7 -8 8 -35 1z"/>
<path d="M2170 1184 c0 -3 11 -19 25 -36 33 -39 32 -48 -6 -48 -30 0 -31 0
-24 -40 5 -28 3 -46 -7 -58 -12 -16 -11 -16 12 0 24 16 26 22 19 63 -3 16 1
19 19 18 22 -3 26 5 22 41 -3 28 -30 66 -46 66 -8 0 -14 -3 -14 -6z"/>
<path d="M247 1048 c7 -41 22 -71 23 -47 0 31 -12 79 -21 79 -5 0 -6 -15 -2
-32z"/>
<path d="M2110 997 c0 -2 7 -18 16 -35 17 -36 12 -52 -17 -52 -10 0 -19 -4
-19 -8 0 -5 14 -7 30 -4 26 4 30 9 30 34 0 33 -16 68 -30 68 -6 0 -10 -2 -10
-3z"/>
<path d="M425 920 c8 -13 35 -13 55 0 11 7 5 10 -23 10 -23 0 -36 -4 -32 -10z"/>
<path d="M355 910 c-3 -5 -2 -10 4 -10 5 0 13 5 16 10 3 6 2 10 -4 10 -5 0
-13 -4 -16 -10z"/>
<path d="M256 863 c-3 -16 -4 -37 -2 -48 2 -11 -3 -40 -10 -65 -8 -25 -14 -56
-14 -70 l0 -25 19 25 c11 13 19 31 19 40 0 8 3 50 5 93 6 74 -5 106 -17 50z"/>
<path d="M840 851 c0 -14 45 -25 66 -17 22 8 17 12 -28 20 -24 4 -38 3 -38 -3z"/>
<path d="M2050 830 c0 -5 5 -10 10 -10 6 0 10 5 10 10 0 6 -4 10 -10 10 -5 0
-10 -4 -10 -10z"/>
<path d="M938 817 c-9 -6 -27 -32 -39 -57 -12 -25 -31 -58 -42 -74 -11 -15
-21 -38 -22 -50 -2 -12 -18 -43 -36 -69 -18 -26 -29 -50 -24 -54 4 -5 10 -2
12 5 3 7 22 36 44 64 23 32 35 55 28 59 -10 6 40 91 62 104 5 4 9 13 9 22 0 9
7 25 17 35 20 22 13 33 -9 15z"/>
<path d="M544 806 c-10 -8 -16 -17 -13 -20 3 -3 14 1 25 8 10 8 16 17 13 20
-3 3 -14 -1 -25 -8z"/>
<path d="M962 758 c-14 -14 -16 -58 -3 -58 7 0 22 60 17 67 -1 2 -8 -3 -14 -9z"/>
<path d="M473 739 c-18 -12 -33 -25 -33 -30 0 -5 -13 -9 -30 -9 -16 0 -30 -4
-30 -10 0 -20 36 -9 88 25 28 20 52 38 52 40 0 10 -16 4 -47 -16z"/>
<path d="M2668 737 c26 -27 31 -57 7 -37 -8 6 -19 10 -24 8 -5 -1 11 -25 35
-51 35 -39 45 -46 50 -33 4 9 0 24 -8 34 -8 9 -15 28 -16 41 -1 27 -29 61 -50
61 -12 0 -10 -5 6 -23z"/>
<path d="M1001 727 c-18 -20 -20 -26 -7 -36 11 -9 15 -7 20 14 4 14 11 25 16
25 6 0 10 5 10 10 0 17 -15 11 -39 -13z"/>
<path d="M2030 726 c0 -8 5 -18 10 -21 6 -3 10 -18 10 -33 0 -18 3 -23 11 -15
7 7 7 22 2 43 -9 35 -33 54 -33 26z"/>
<path d="M192 698 c-7 -7 -12 -19 -12 -27 0 -11 5 -8 16 7 18 25 15 39 -4 20z"/>
<path d="M2380 696 c0 -8 5 -18 10 -21 6 -4 8 -15 5 -26 -4 -11 2 -33 14 -53
11 -18 18 -35 16 -38 -3 -3 16 -29 42 -59 27 -29 40 -50 31 -46 -28 10 -29 -8
-4 -54 28 -48 26 -59 -7 -52 l-22 5 22 -20 c41 -37 63 -84 63 -139 0 -63 16
-70 23 -10 3 30 -2 57 -19 96 -13 29 -24 66 -24 80 0 15 -7 36 -15 47 -20 27
-19 36 5 29 30 -10 25 16 -10 50 -16 16 -30 35 -30 43 0 8 -14 31 -30 52 -21
26 -26 40 -18 43 10 3 7 14 -9 43 -23 41 -43 55 -43 30z"/>
<path d="M741 676 c-16 -19 -11 -29 8 -17 7 5 12 14 9 21 -3 9 -8 7 -17 -4z"/>
<path d="M1048 679 c-22 -12 -24 -49 -2 -49 8 0 12 5 9 11 -4 5 1 19 11 30 18
21 10 25 -18 8z"/>
<path d="M265 669 c-11 -17 1 -21 15 -4 8 9 8 15 2 15 -6 0 -14 -5 -17 -11z"/>
<path d="M1076 635 c4 -8 12 -15 20 -15 8 0 11 6 8 15 -4 8 -12 15 -20 15 -8
0 -11 -6 -8 -15z"/>
<path d="M158 623 c-29 -34 -41 -64 -29 -76 8 -8 11 -7 11 4 0 8 11 31 25 52
26 38 21 52 -7 20z"/>
<path d="M300 630 c0 -5 9 -10 21 -10 11 0 17 5 14 10 -3 6 -13 10 -21 10 -8
0 -14 -4 -14 -10z"/>
<path d="M2000 630 c0 -6 7 -18 16 -27 23 -24 14 -66 -19 -81 -23 -11 -28 -20
-26 -45 1 -18 -1 -41 -5 -52 -4 -11 -14 -38 -22 -59 -14 -41 -11 -57 7 -39 13
13 39 110 39 149 0 22 6 33 18 36 25 7 46 52 38 82 -6 26 -46 57 -46 36z"/>
<path d="M1150 610 c0 -5 5 -10 10 -10 6 0 10 5 10 10 0 6 -4 10 -10 10 -5 0
-10 -4 -10 -10z"/>
<path d="M2793 572 c-14 -22 -23 -29 -26 -20 -4 9 -6 8 -6 -4 -1 -9 4 -20 9
-23 6 -3 10 -25 10 -48 0 -23 5 -49 10 -57 7 -11 10 -2 10 33 0 30 4 46 10 42
6 -3 10 3 10 14 0 10 -5 21 -11 23 -9 3 -9 10 0 27 20 37 6 49 -16 13z"/>
<path d="M1106 552 c-8 -14 3 -39 20 -46 8 -3 14 -18 14 -33 1 -25 2 -24 15
12 18 49 18 48 0 41 -8 -3 -21 4 -29 15 -8 11 -17 16 -20 11z"/>
<path d="M863 543 c-18 -7 -86 -94 -88 -112 0 -10 -11 -33 -23 -53 -12 -19
-22 -46 -22 -60 0 -41 -42 -71 -112 -79 -37 -4 -70 -3 -81 3 -25 13 -37 0 -14
-17 22 -16 133 -8 162 11 42 30 50 17 28 -44 -3 -6 0 -12 6 -12 6 0 11 6 11
14 0 7 9 25 20 39 25 32 25 40 -1 32 -18 -6 -19 -5 -10 13 6 12 16 24 21 27
17 11 11 25 -7 18 -17 -7 -16 -5 1 22 10 17 27 40 38 51 11 12 18 29 16 37 -2
9 14 37 36 62 38 46 42 56 19 48z"/>
<path d="M172 518 c-7 -7 -12 -21 -12 -32 1 -18 3 -17 16 7 17 31 15 44 -4 25z"/>
<path d="M190 468 c0 -17 20 -47 20 -31 0 6 3 18 6 27 4 11 1 16 -10 16 -9 0
-16 -6 -16 -12z"/>
<path d="M1400 428 c-6 -24 -18 -65 -27 -91 -12 -36 -13 -51 -4 -60 8 -8 11
-5 11 11 0 13 8 39 19 60 20 41 34 122 20 122 -4 0 -13 -19 -19 -42z"/>
<path d="M488 453 c7 -3 16 -2 19 1 4 3 -2 6 -13 5 -11 0 -14 -3 -6 -6z"/>
<path d="M275 440 c-9 -15 14 -60 31 -60 7 0 21 3 31 7 16 6 15 8 -7 13 -14 3
-30 16 -36 29 -8 15 -14 19 -19 11z"/>
<path d="M390 441 c0 -17 26 -24 47 -12 16 9 16 10 1 11 -9 0 -23 3 -32 6 -9
3 -16 1 -16 -5z"/>
<path d="M1177 410 c-3 -11 -2 -22 3 -25 4 -3 10 4 13 15 3 11 2 22 -3 25 -4
3 -10 -4 -13 -15z"/>
<path d="M2820 378 c0 -18 27 -44 37 -34 4 4 -3 16 -15 29 -18 17 -22 18 -22
5z"/>
<path d="M274 356 c-3 -7 -1 -29 4 -47 l10 -34 1 32 c1 17 4 38 7 47 3 9 1 16
-5 16 -7 0 -14 -6 -17 -14z"/>
<path d="M2790 351 c0 -5 7 -15 16 -22 9 -8 25 -32 34 -54 10 -22 32 -53 50
-70 32 -29 33 -18 2 18 -9 9 -16 26 -17 37 -3 41 -85 128 -85 91z"/>
<path d="M1418 313 c-14 -15 -37 -85 -38 -115 0 -5 9 -8 20 -8 13 0 20 -7 20
-19 0 -21 21 -33 38 -22 6 4 13 23 16 43 4 33 2 36 -22 35 -15 -1 -30 -6 -34
-12 -4 -5 -8 4 -8 20 0 17 7 41 16 53 20 29 14 49 -8 25z"/>
<path d="M1194 285 c-6 -23 0 -45 10 -34 10 12 15 59 6 59 -5 0 -12 -11 -16
-25z"/>
<path d="M327 294 c-7 -8 11 -46 27 -56 6 -4 18 -7 26 -7 11 0 12 2 2 6 -8 3
-22 18 -31 34 -10 16 -21 26 -24 23z"/>
<path d="M2805 281 c-3 -5 -1 -12 5 -16 5 -3 10 1 10 9 0 18 -6 21 -15 7z"/>
<path d="M432 238 c3 -7 15 -14 29 -16 24 -4 24 -3 4 12 -24 19 -38 20 -33 4z"/>
<path d="M1220 182 c0 -26 4 -41 10 -37 13 8 13 45 0 65 -7 11 -10 3 -10 -28z"/>
<path d="M2810 185 c0 -8 4 -15 10 -15 5 0 7 7 4 15 -4 8 -8 15 -10 15 -2 0
-4 -7 -4 -15z"/>
<path d="M662 168 c-13 -13 -16 -38 -4 -38 4 0 15 12 25 25 13 19 15 25 4 25
-7 0 -18 -5 -25 -12z"/>
<path d="M1910 159 c0 -14 -5 -30 -12 -37 -9 -9 -8 -12 5 -12 20 0 34 47 18
63 -8 8 -11 5 -11 -14z"/>
<path d="M2585 130 c-3 -5 -1 -10 4 -10 6 0 11 5 11 10 0 6 -2 10 -4 10 -3 0
-8 -4 -11 -10z"/>
<path d="M696 90 c-18 -46 -20 -60 -7 -60 10 0 36 88 29 96 -3 3 -13 -13 -22
-36z"/>
<path d="M1210 50 c0 -42 3 -50 19 -50 10 0 22 7 25 16 9 24 7 29 -6 16 -21
-21 -28 -13 -22 28 4 26 2 40 -5 40 -7 0 -11 -21 -11 -50z"/>
<path d="M1426 72 c-3 -5 1 -18 9 -28 14 -18 14 -18 15 3 0 23 -15 39 -24 25z"/>
<path d="M2920 68 c0 -9 5 -20 11 -23 17 -11 18 -2 3 19 -12 17 -14 17 -14 4z"/>
<path d="M721 33 c1 -34 2 -35 9 -13 11 36 11 50 0 50 -5 0 -10 -17 -9 -37z"/>
</g>
</svg>
